<?xml version="1.0" encoding="UTF-8" standalone="no"?>
<!DOCTYPE svg PUBLIC "-//W3C//DTD SVG 1.1//EN"
 "http://www.w3.org/Graphics/SVG/1.1/DTD/svg11.dtd">
<!-- Generated by graphviz version 2.47.0 (20210316.0004)
 -->
<!-- Title: dependencies Pages: 1 -->
<svg width="504pt" height="279pt"
 viewBox="0.00 0.00 504.00 279.00" xmlns="http://www.w3.org/2000/svg" xmlns:xlink="http://www.w3.org/1999/xlink">
<g id="graph0" class="graph" transform="scale(1 1) rotate(0) translate(4 275)">
<title>dependencies</title>
<polygon fill="white" stroke="transparent" points="-4,4 -4,-275 500,-275 500,4 -4,4"/>
<text text-anchor="start" x="227.01" y="-42.4" font-family="Times-12" font-weight="bold" font-size="14.00">Legend</text>
<polygon fill="#ffffb3" stroke="transparent" points="14,-10 14,-30 34,-30 34,-10 14,-10"/>
<text text-anchor="start" x="37.63" y="-15.4" font-family="Times-12" font-size="14.00"> &#160;Declarations</text>
<polygon fill="#8dd3c7" stroke="transparent" points="127,-10 127,-30 147,-30 147,-10 127,-10"/>
<text text-anchor="start" x="150.73" y="-15.4" font-family="Times-12" font-size="14.00"> &#160;Module</text>
<polygon fill="#80b1d3" stroke="transparent" points="213,-10 213,-30 233,-30 233,-10 213,-10"/>
<text text-anchor="start" x="236.78" y="-15.4" font-family="Times-12" font-size="14.00"> &#160;Bootstrap</text>
<polygon fill="#fdb462" stroke="transparent" points="310,-10 310,-30 330,-30 330,-10 310,-10"/>
<text text-anchor="start" x="333.67" y="-15.4" font-family="Times-12" font-size="14.00"> &#160;Providers</text>
<polygon fill="#fb8072" stroke="transparent" points="406,-10 406,-30 426,-30 426,-10 406,-10"/>
<text text-anchor="start" x="429.73" y="-15.4" font-family="Times-12" font-size="14.00"> &#160;Exports</text>
<g id="clust1" class="cluster">
<title>cluster_AppModule</title>
<polygon fill="none" stroke="black" stroke-dasharray="1,5" points="8,-70 8,-263 300,-263 300,-70 8,-70"/>
</g>
<g id="clust3" class="cluster">
<title>cluster_AppModule_imports</title>
<polygon fill="none" stroke="black" points="166,-78 166,-198 292,-198 292,-78 166,-78"/>
</g>
<g id="clust6" class="cluster">
<title>cluster_AppModule_providers</title>
<polygon fill="none" stroke="black" points="16,-146 16,-198 146,-198 146,-146 16,-146"/>
</g>
<g id="clust13" class="cluster">
<title>cluster_ProductsModule</title>
<polygon fill="none" stroke="black" stroke-dasharray="1,5" points="308,-70 308,-138 488,-138 488,-70 308,-70"/>
</g>
<g id="clust18" class="cluster">
<title>cluster_ProductsModule_providers</title>
<polygon fill="none" stroke="black" points="316,-78 316,-130 480,-130 480,-78 316,-78"/>
</g>
<!-- DatabaseModule -->
<g id="node1" class="node">
<title>DatabaseModule</title>
<polygon fill="#8dd3c7" stroke="black" points="284.35,-122 281.35,-126 260.35,-126 257.35,-122 173.65,-122 173.65,-86 284.35,-86 284.35,-122"/>
<text text-anchor="middle" x="229" y="-99.8" font-family="Times,serif" font-size="14.00">DatabaseModule</text>
</g>
<!-- ProductsModule -->
<g id="node2" class="node">
<title>ProductsModule</title>
<polygon fill="#8dd3c7" stroke="black" points="284.04,-190 281.04,-194 260.04,-194 257.04,-190 175.96,-190 175.96,-154 284.04,-154 284.04,-190"/>
<text text-anchor="middle" x="230" y="-167.8" font-family="Times,serif" font-size="14.00">ProductsModule</text>
</g>
<!-- DatabaseModule&#45;&gt;ProductsModule -->
<g id="edge4" class="edge">
<title>DatabaseModule&#45;&gt;ProductsModule</title>
<path fill="none" stroke="black" d="M230,-122.22C230,-122.22 230,-143.73 230,-143.73"/>
<polygon fill="black" stroke="black" points="226.5,-143.73 230,-153.73 233.5,-143.73 226.5,-143.73"/>
</g>
<!-- AppModule -->
<g id="node3" class="node">
<title>AppModule</title>
<polygon fill="#8dd3c7" stroke="black" points="198.66,-255 195.66,-259 174.66,-259 171.66,-255 115.34,-255 115.34,-219 198.66,-219 198.66,-255"/>
<text text-anchor="middle" x="157" y="-232.8" font-family="Times,serif" font-size="14.00">AppModule</text>
</g>
<!-- DatabaseModule&#45;&gt;AppModule -->
<g id="edge1" class="edge">
<title>DatabaseModule&#45;&gt;AppModule</title>
<path fill="none" stroke="black" d="M173.37,-104C163.13,-104 155.6,-104 155.6,-104 155.6,-104 155.6,-208.79 155.6,-208.79"/>
<polygon fill="black" stroke="black" points="152.1,-208.79 155.6,-218.79 159.1,-208.79 152.1,-208.79"/>
</g>
<!-- ProductsModule&#45;&gt;AppModule -->
<g id="edge2" class="edge">
<title>ProductsModule&#45;&gt;AppModule</title>
<path fill="none" stroke="black" d="M187.28,-190.11C187.28,-190.11 187.28,-208.99 187.28,-208.99"/>
<polygon fill="black" stroke="black" points="183.78,-208.99 187.28,-218.99 190.78,-208.99 183.78,-208.99"/>
</g>
<!-- AppService -->
<g id="node4" class="node">
<title>AppService</title>
<ellipse fill="#fdb462" stroke="black" cx="81" cy="-172" rx="56.74" ry="18"/>
<text text-anchor="middle" x="81" y="-167.8" font-family="Times,serif" font-size="14.00">AppService</text>
</g>
<!-- AppService&#45;&gt;AppModule -->
<g id="edge3" class="edge">
<title>AppService&#45;&gt;AppModule</title>
<path fill="none" stroke="black" d="M126.4,-183.03C126.4,-183.03 126.4,-208.78 126.4,-208.78"/>
<polygon fill="black" stroke="black" points="122.9,-208.78 126.4,-218.78 129.9,-208.78 122.9,-208.78"/>
</g>
<!-- ProductsService -->
<g id="node5" class="node">
<title>ProductsService</title>
<ellipse fill="#fdb462" stroke="black" cx="398" cy="-104" rx="73.57" ry="18"/>
<text text-anchor="middle" x="398" y="-99.8" font-family="Times,serif" font-size="14.00">ProductsService</text>
</g>
<!-- ProductsService&#45;&gt;ProductsModule -->
<g id="edge5" class="edge">
<title>ProductsService&#45;&gt;ProductsModule</title>
<path fill="none" stroke="black" d="M398,-122.22C398,-142.37 398,-172 398,-172 398,-172 294.08,-172 294.08,-172"/>
<polygon fill="black" stroke="black" points="294.08,-168.5 284.08,-172 294.08,-175.5 294.08,-168.5"/>
</g>
</g>
</svg>
